Coordinates
version=1
nRows=49
nColumns=12
inDegrees=yes

Units are S.I. units (second, meters, Newtons, ...)
Angles are in degrees

endheader
time	SC_y	SC_z	SC_x	AC_y	AC_z	AC_x	GH_y	GH_z	GH_yy	EL_x	PS_y
       0.0              -26.51          26.64          31.73          61.56          3.689        -0.9441          70.83          58.14          79.21          41.92          26.85
   0.01373               -26.5          26.64          31.73          61.56          3.686        -0.9414          70.85          58.14          79.21          41.92          26.84
   0.02745               -26.5          26.64          31.73          61.56          3.683        -0.9385          70.86          58.13           79.2          41.92          26.84
   0.04118               -26.5          26.64          31.73          61.56           3.68        -0.9355          70.88          58.13          79.19          41.92          26.84
   0.05491               -26.5          26.63          31.73          61.56          3.676        -0.9322           70.9          58.12          79.19          41.92          26.84
   0.06863              -26.49          26.63          31.73          61.55          3.672        -0.9288          70.92          58.12          79.18          41.92          26.84
   0.08236              -26.49          26.63          31.73          61.55          3.668        -0.9251          70.94          58.11          79.17          41.93          26.84
   0.09609              -26.49          26.62          31.72          61.55          3.664        -0.9211          70.96          58.11          79.16          41.93          26.83
    0.1098              -26.48          26.62          31.72          61.55           3.66        -0.9169          70.98           58.1          79.15          41.93          26.83
    0.1235              -26.48          26.62          31.72          61.55          3.655        -0.9124          71.01           58.1          79.14          41.93          26.83
    0.1373              -26.48          26.61          31.72          61.55          3.649        -0.9075          71.03          58.09          79.13          41.94          26.82
     0.151              -26.47          26.61          31.72          61.55          3.644        -0.9022          71.06          58.08          79.11          41.94          26.82
    0.1647              -26.47           26.6          31.71          61.55          3.637        -0.8966          71.09          58.07           79.1          41.94          26.82
    0.1784              -26.46           26.6          31.71          61.55          3.631        -0.8905          71.13          58.06          79.08          41.95          26.81
    0.1922              -26.46          26.59          31.71          61.55          3.624        -0.8839          71.16          58.06          79.07          41.95          26.81
    0.2059              -26.45          26.59          31.71          61.55          3.616        -0.8767           71.2          58.04          79.05          41.95          26.81
    0.2196              -26.44          26.58           31.7          61.55          3.607        -0.8689          71.24          58.03          79.03          41.96           26.8
    0.2334              -26.44          26.57           31.7          61.54          3.598        -0.8604          71.29          58.02          79.01          41.96           26.8
    0.2471              -26.43          26.56           31.7          61.54          3.588        -0.8512          71.34          58.01          78.99          41.97          26.79
    0.2608              -26.42          26.55          31.69          61.54          3.577         -0.841           71.4          57.99          78.96          41.97          26.78
    0.2745              -26.41          26.55          31.69          61.54          3.565        -0.8299          71.46          57.98          78.94          41.98          26.78
    0.2883               -26.4          26.53          31.68          61.54          3.552        -0.8176          71.52          57.96          78.91          41.99          26.77
     0.302              -26.39          26.52          31.68          61.54          3.537        -0.8041           71.6          57.94          78.87          41.99          26.76
    0.3157              -26.38          26.51          31.67          61.53          3.521        -0.7891          71.68          57.92          78.84           42.0          26.75
    0.3294              -26.37          26.49          31.67          61.53          3.503        -0.7724          71.77          57.89           78.8          42.01          26.74
    0.3432              -26.35          26.48          31.66          61.53          3.482        -0.7538          71.87          57.87          78.75          42.02          26.73
    0.3569              -26.33          26.46          31.65          61.52           3.46         -0.733          71.98          57.84           78.7          42.03          26.72
    0.3706              -26.32          26.44          31.64          61.52          3.434        -0.7095          72.11           57.8          78.65          42.05          26.71
    0.3843              -26.29          26.42          31.63          61.52          3.405         -0.683          72.26          57.77          78.58          42.06          26.69
    0.3981              -26.27          26.39          31.62          61.51          3.373         -0.653          72.42          57.72          78.51          42.08          26.67
    0.4118              -26.24          26.36          31.61          61.51          3.335        -0.6186          72.61          57.67          78.43           42.1          26.65
    0.4255              -26.21          26.33          31.59           61.5          3.293        -0.5792          72.82          57.62          78.33          42.12          26.63
    0.4393              -26.17          26.29          31.58          61.49          3.243        -0.5337          73.07          57.55          78.22          42.14           26.6
     0.453              -26.13          26.24          31.56          61.49          3.186        -0.4809          73.36          57.48          78.09          42.17          26.57
    0.4667              -26.08          26.19          31.53          61.48          3.118         -0.419           73.7          57.39          77.94          42.21          26.53
    0.4804              -26.02          26.12          31.51          61.47          3.039        -0.3461          74.09          57.28          77.76          42.25          26.49
    0.4942              -25.95          26.05          31.47          61.45          2.945        -0.2595          74.57          57.16          77.55           42.3          26.44
    0.5079              -25.87          25.96          31.43          61.44          2.832        -0.1556          75.13          57.01           77.3          42.36          26.37
    0.5216              -25.77          25.85          31.39          61.42          2.696       -0.02995          75.82          56.83           77.0          42.43           26.3
    0.5353              -25.64          25.71          31.33          61.39          2.529         0.1235          76.65          56.61          76.63          42.51          26.21
    0.5491              -25.49          25.55          31.25          61.37          2.323          0.313          77.68          56.33          76.17          42.62          26.09
    0.5628               -25.3          25.34          31.16          61.33          2.066         0.5492          78.97          55.99          75.59          42.75          25.95
    0.5765              -25.06          25.08          31.05          61.28          1.743         0.8468          80.59          55.57          74.87          42.92          25.78
    0.5902              -24.75          24.75          30.91          61.23          1.331          1.225          82.66          55.02          73.96          43.13          25.55
     0.604              -24.36          24.33          30.72          61.15         0.8051          1.709          85.29          54.33          72.78           43.4          25.26
    0.6177              -23.85          23.79          30.49          61.06         0.1297          2.331          88.68          53.43          71.28          43.74          24.89
    0.6314              -23.21           23.1          30.19          60.94        -0.7329          3.124          93.01          52.29          69.35          44.19          24.41
    0.6452               -22.4          22.23          29.81          60.78         -1.818          4.122          98.45          50.85          66.94          44.74          23.82
    0.6589              -21.42          21.17          29.34           60.6          -3.14          5.339          105.1          49.11          63.99          45.42          23.09
